solid OpenSCAD_Model
  facet normal 0 0 -1
    outer loop
      vertex -75 -75 -12.5
      vertex 75 75 -12.5
      vertex 75 -75 -12.5
    endloop
  endfacet
  facet normal -0 0 -1
    outer loop
      vertex 75 75 -12.5
      vertex -75 -75 -12.5
      vertex -75 75 -12.5
    endloop
  endfacet
  facet normal -1.7041e-06 -0.707107 -0.707107
    outer loop
      vertex 75.1078 -87.5 0
      vertex 75 -75 -12.5
      vertex 83.3711 -83.3711 -4.12892
    endloop
  endfacet
  facet normal 0 -0.707107 -0.707107
    outer loop
      vertex 75.1078 -87.5 0
      vertex -75 -75 -12.5
      vertex 75 -75 -12.5
    endloop
  endfacet
  facet normal 0 -0.707107 -0.707107
    outer loop
      vertex -75.0839 -87.5 0
      vertex -75 -75 -12.5
      vertex 75.1078 -87.5 0
    endloop
  endfacet
  facet normal -8.51741e-07 -0.707107 -0.707107
    outer loop
      vertex -75 -75 -12.5
      vertex -75.0839 -87.5 0
      vertex -83.358 -83.358 -4.14199
    endloop
  endfacet
  facet normal 0.707107 1.7041e-06 -0.707107
    outer loop
      vertex 75 -75 -12.5
      vertex 87.5 -75.1078 0
      vertex 83.3711 -83.3711 -4.12892
    endloop
  endfacet
  facet normal 0.707107 0 -0.707107
    outer loop
      vertex 87.5 -75.1078 0
      vertex 75 -75 -12.5
      vertex 87.5 75.006 0
    endloop
  endfacet
  facet normal 0.707107 0 -0.707107
    outer loop
      vertex 75 75 -12.5
      vertex 87.5 75.006 0
      vertex 75 -75 -12.5
    endloop
  endfacet
  facet normal 0.707107 2.54721e-06 -0.707107
    outer loop
      vertex 87.5 75.006 0
      vertex 75 75 -12.5
      vertex 83.332 83.332 -4.16797
    endloop
  endfacet
  facet normal -0.707107 8.51741e-07 -0.707107
    outer loop
      vertex -75 75 -12.5
      vertex -87.5 75.0839 0
      vertex -83.358 83.358 -4.14199
    endloop
  endfacet
  facet normal -0.707107 0 -0.707107
    outer loop
      vertex -75 -75 -12.5
      vertex -87.5 75.0839 0
      vertex -75 75 -12.5
    endloop
  endfacet
  facet normal -0.707107 0 -0.707107
    outer loop
      vertex -75 -75 -12.5
      vertex -87.5 -75.0839 0
      vertex -87.5 75.0839 0
    endloop
  endfacet
  facet normal -0.707107 -8.51741e-07 -0.707107
    outer loop
      vertex -87.5 -75.0839 0
      vertex -75 -75 -12.5
      vertex -83.358 -83.358 -4.14199
    endloop
  endfacet
  facet normal 0 0.707107 -0.707107
    outer loop
      vertex -75 75 -12.5
      vertex -75.0839 87.5 0
      vertex 75.006 87.5 0
    endloop
  endfacet
  facet normal 2.54721e-06 0.707107 -0.707107
    outer loop
      vertex 75 75 -12.5
      vertex 75.006 87.5 0
      vertex 83.332 83.332 -4.16797
    endloop
  endfacet
  facet normal 0 0.707107 -0.707107
    outer loop
      vertex -75 75 -12.5
      vertex 75.006 87.5 0
      vertex 75 75 -12.5
    endloop
  endfacet
  facet normal -8.51741e-07 0.707107 -0.707107
    outer loop
      vertex -75.0839 87.5 0
      vertex -75 75 -12.5
      vertex -83.358 83.358 -4.14199
    endloop
  endfacet
  facet normal -0 0 1
    outer loop
      vertex -75 75 12.5
      vertex 75 -75 12.5
      vertex 75 75 12.5
    endloop
  endfacet
  facet normal 0 0 1
    outer loop
      vertex 75 -75 12.5
      vertex -75 75 12.5
      vertex -75 -75 12.5
    endloop
  endfacet
  facet normal 0 -0.707107 0.707107
    outer loop
      vertex -75.0839 -87.5 0
      vertex 75 -75 12.5
      vertex -75 -75 12.5
    endloop
  endfacet
  facet normal -1.42737e-14 -0.707107 0.707107
    outer loop
      vertex -75.0839 -87.5 0
      vertex -75 -75 12.5
      vertex -75.1134 -75.1134 12.3866
    endloop
  endfacet
  facet normal 0 -0.707107 0.707107
    outer loop
      vertex 75.1078 -87.5 0
      vertex 75 -75 12.5
      vertex -75.0839 -87.5 0
    endloop
  endfacet
  facet normal 5.54486e-14 -0.707107 0.707107
    outer loop
      vertex 75 -75 12.5
      vertex 75.1078 -87.5 0
      vertex 75.0914 -75.0914 12.4086
    endloop
  endfacet
  facet normal -0.707107 1.42737e-14 0.707107
    outer loop
      vertex -87.5 75.0839 0
      vertex -75 75 12.5
      vertex -75.1134 75.1134 12.3866
    endloop
  endfacet
  facet normal -0.707107 0 0.707107
    outer loop
      vertex -75 75 12.5
      vertex -87.5 75.0839 0
      vertex -75 -75 12.5
    endloop
  endfacet
  facet normal -0.707107 0 0.707107
    outer loop
      vertex -87.5 -75.0839 0
      vertex -75 -75 12.5
      vertex -87.5 75.0839 0
    endloop
  endfacet
  facet normal -0.707107 -1.11513e-14 0.707107
    outer loop
      vertex -75 -75 12.5
      vertex -87.5 -75.0839 0
      vertex -75.1134 -75.1134 12.3866
    endloop
  endfacet
  facet normal 0.707107 0 0.707107
    outer loop
      vertex 75 -75 12.5
      vertex 87.5 -75.1078 0
      vertex 87.5 75.006 0
    endloop
  endfacet
  facet normal 0.707107 -1.05603e-13 0.707107
    outer loop
      vertex 75 75 12.5
      vertex 87.5 75.006 0
      vertex 75.0357 75.0357 12.4643
    endloop
  endfacet
  facet normal 0.707107 -0 0.707107
    outer loop
      vertex 75 -75 12.5
      vertex 87.5 75.006 0
      vertex 75 75 12.5
    endloop
  endfacet
  facet normal 0.707107 -5.32307e-14 0.707107
    outer loop
      vertex 87.5 -75.1078 0
      vertex 75 -75 12.5
      vertex 75.0914 -75.0914 12.4086
    endloop
  endfacet
  facet normal -1.35172e-13 0.707107 0.707107
    outer loop
      vertex 75.006 87.5 0
      vertex 75 75 12.5
      vertex 75.0357 75.0357 12.4643
    endloop
  endfacet
  facet normal 0 0.707107 0.707107
    outer loop
      vertex 75.006 87.5 0
      vertex -75 75 12.5
      vertex 75 75 12.5
    endloop
  endfacet
  facet normal -0 0.707107 0.707107
    outer loop
      vertex -75.0839 87.5 0
      vertex -75 75 12.5
      vertex 75.006 87.5 0
    endloop
  endfacet
  facet normal -1.11513e-14 0.707107 0.707107
    outer loop
      vertex -75 75 12.5
      vertex -75.0839 87.5 0
      vertex -75.1134 75.1134 12.3866
    endloop
  endfacet
  facet normal 0.577096 -0.577095 0.577859
    outer loop
      vertex 75.0914 -75.0914 12.4086
      vertex 83.3711 -83.3711 -4.12892
      vertex 87.5 -75.1078 0
    endloop
  endfacet
  facet normal 0.577095 -0.577096 0.577859
    outer loop
      vertex 83.3711 -83.3711 -4.12892
      vertex 75.0914 -75.0914 12.4086
      vertex 75.1078 -87.5 0
    endloop
  endfacet
  facet normal 0.577809 0.577809 0.576432
    outer loop
      vertex 87.5 75.006 0
      vertex 75.006 87.5 0
      vertex 75.0357 75.0357 12.4643
    endloop
  endfacet
  facet normal 0.577811 0.577811 0.576428
    outer loop
      vertex 75.006 87.5 0
      vertex 87.5 75.006 0
      vertex 83.332 83.332 -4.16797
    endloop
  endfacet
  facet normal -0.57781 0.57781 0.57643
    outer loop
      vertex -87.5 75.0839 0
      vertex -75.0839 87.5 0
      vertex -83.358 83.358 -4.14199
    endloop
  endfacet
  facet normal -0.577809 0.577809 0.576432
    outer loop
      vertex -75.0839 87.5 0
      vertex -87.5 75.0839 0
      vertex -75.1134 75.1134 12.3866
    endloop
  endfacet
  facet normal -0.57781 -0.57781 0.57643
    outer loop
      vertex -75.0839 -87.5 0
      vertex -87.5 -75.0839 0
      vertex -83.358 -83.358 -4.14199
    endloop
  endfacet
  facet normal -0.577809 -0.577809 0.576432
    outer loop
      vertex -87.5 -75.0839 0
      vertex -75.0839 -87.5 0
      vertex -75.1134 -75.1134 12.3866
    endloop
  endfacet
endsolid OpenSCAD_Model
