solid OpenSCAD_Model
  facet normal -0 0 1
    outer loop
      vertex -1.5 2 38.5
      vertex 1.5 -2 38.5
      vertex 1.5 2 38.5
    endloop
  endfacet
  facet normal 0 0 1
    outer loop
      vertex 1.5 -2 38.5
      vertex -1.5 2 38.5
      vertex -1.5 -2 38.5
    endloop
  endfacet
  facet normal 0 0 -1
    outer loop
      vertex -1.5 -2 -38.5
      vertex 1.5 2 -38.5
      vertex 1.5 -2 -38.5
    endloop
  endfacet
  facet normal -0 0 -1
    outer loop
      vertex 1.5 2 -38.5
      vertex -1.5 -2 -38.5
      vertex -1.5 2 -38.5
    endloop
  endfacet
  facet normal 0 -1 0
    outer loop
      vertex -1.5 -2 -38.5
      vertex 1.5 -2 38.5
      vertex -1.5 -2 38.5
    endloop
  endfacet
  facet normal 0 -1 -0
    outer loop
      vertex 1.5 -2 38.5
      vertex -1.5 -2 -38.5
      vertex 1.5 -2 -38.5
    endloop
  endfacet
  facet normal 1 -0 0
    outer loop
      vertex 1.5 -2 38.5
      vertex 1.5 2 -38.5
      vertex 1.5 2 38.5
    endloop
  endfacet
  facet normal 1 0 0
    outer loop
      vertex 1.5 2 -38.5
      vertex 1.5 -2 38.5
      vertex 1.5 -2 -38.5
    endloop
  endfacet
  facet normal 0 1 -0
    outer loop
      vertex 1.5 2 -38.5
      vertex -1.5 2 38.5
      vertex 1.5 2 38.5
    endloop
  endfacet
  facet normal 0 1 0
    outer loop
      vertex -1.5 2 38.5
      vertex 1.5 2 -38.5
      vertex -1.5 2 -38.5
    endloop
  endfacet
  facet normal -1 0 0
    outer loop
      vertex -1.5 -2 -38.5
      vertex -1.5 2 38.5
      vertex -1.5 2 -38.5
    endloop
  endfacet
  facet normal -1 -0 0
    outer loop
      vertex -1.5 2 38.5
      vertex -1.5 -2 -38.5
      vertex -1.5 -2 38.5
    endloop
  endfacet
endsolid OpenSCAD_Model
